<svg width="28" height="28" viewBox="0 0 28 28" fill="none" xmlns="http://www.w3.org/2000/svg">
<path d="M8.22305 11.354C8.13929 11.5325 8.06599 11.732 8.00317 11.921L4.62109 9.28552C6.33831 5.85202 9.87744 3.5 13.9715 3.5C16.7986 3.5 19.165 4.53951 20.9765 6.23001L18.0237 9.12803C17.2594 8.41403 15.94 7.56351 13.9715 7.56351C11.4166 7.56351 9.21778 9.11753 8.22305 11.354Z" fill="#EA4335"/>
<path d="M7.66738 14.0001C7.66738 14.7246 7.79303 15.4282 8.01292 16.0792L4.63085 18.7065L4.62038 18.7147C3.90836 17.2867 3.5 15.6907 3.5 14.0001C3.5 12.3096 3.90836 10.7136 4.62038 9.28564L8.00245 11.9212C7.79303 12.5722 7.66738 13.2756 7.66738 14.0001Z" fill="#FBBC05"/>
<path d="M13.9715 20.4471C15.5317 20.4471 16.7253 20.0166 17.6049 19.3971L20.9032 21.9591C19.1755 23.5656 16.7986 24.5001 13.9715 24.5001C9.87744 24.5001 6.34878 22.1481 4.63157 18.7146V18.7065L4.62109 18.7146L4.63157 18.7041V18.7065L8.01364 16.0791C8.8513 18.6201 11.2072 20.4471 13.9715 20.4471Z" fill="#34A853"/>
<path d="M13.9707 12.0996H23.8028C23.9494 12.7506 24.0227 13.3806 24.0227 14.2311C24.0227 17.4336 22.8814 20.1321 20.9024 21.9591L17.6041 19.3971C18.9967 18.4206 19.6249 16.9611 19.7401 15.9951H13.9707V12.0996Z" fill="#4285F4"/>
</svg>
